<?xml version="1.0" encoding="iso-8859-1"?>
<!-- Generator: Adobe Illustrator 19.0.0, SVG Export Plug-In . SVG Version: 6.00 Build 0)  -->
<svg version="1.1" id="Layer_1" xmlns="http://www.w3.org/2000/svg" xmlns:xlink="http://www.w3.org/1999/xlink" x="0px" y="0px"
	 viewBox="0 0 512 512" style="enable-background:new 0 0 512 512;" xml:space="preserve">
<g>
	<g>
		<path d="M256,417.959c-25.927,0-47.02,21.093-47.02,47.02c0,25.927,21.093,47.02,47.02,47.02s47.02-21.093,47.02-47.02
			C303.02,439.053,281.927,417.959,256,417.959z M256,480.653c-8.642,0-15.673-7.031-15.673-15.673
			c0-8.642,7.031-15.674,15.673-15.674c8.642,0,15.673,7.031,15.673,15.674C271.673,473.622,264.642,480.653,256,480.653z"/>
	</g>
</g>
<g>
	<g>
		<path d="M256,0c-85.271,0-154.645,69.374-154.645,154.645v15.673h94.041v-15.673c0-33.417,27.187-60.604,60.604-60.604
			c33.417,0,60.604,27.187,60.604,60.604c0,16.188-6.304,31.406-17.75,42.853c-18.533,18.533-74.232,70.103-74.792,70.622
			l-15.083,13.958v104.535h94.041V323.13c19.308-17.977,48.793-45.598,62.329-59.135c29.209-29.208,45.295-68.043,45.295-109.351
			C410.645,69.374,341.271,0,256,0z M343.184,241.829c-14.956,14.956-51.494,49.036-66.509,62.996l-5.002,4.65v45.791h-31.347
			v-59.487l5.028-4.654c0.565-0.522,56.709-52.505,75.665-71.462c17.367-17.366,26.931-40.457,26.931-65.018
			c0-50.702-41.249-91.951-91.951-91.951c-45.361,0-83.155,33.015-90.615,76.278h-31.692C141.415,78.356,193.321,31.347,256,31.347
			c67.986,0,123.298,55.312,123.298,123.298C379.298,187.58,366.473,218.542,343.184,241.829z"/>
	</g>
</g>
<g>
</g>
<g>
</g>
<g>
</g>
<g>
</g>
<g>
</g>
<g>
</g>
<g>
</g>
<g>
</g>
<g>
</g>
<g>
</g>
<g>
</g>
<g>
</g>
<g>
</g>
<g>
</g>
<g>
</g>
</svg>
